<svg width="34" height="40" viewBox="0 0 34 40" fill="none" xmlns="http://www.w3.org/2000/svg">
<path d="M18.6666 20L17.52 13.3333H16.505L15.3333 20C14.34 20.5783 13.6666 21.64 13.6666 22.8717C13.6666 24.7117 15.16 26.205 17 26.205C18.84 26.205 20.3333 24.7117 20.3333 22.8717C20.3333 21.64 19.66 20.5783 18.6666 20ZM17 6.66667C7.79665 6.66667 0.333313 14.1283 0.333313 23.3333C0.333313 32.5383 7.79665 40 17 40C26.2033 40 33.6666 32.5383 33.6666 23.3333C33.6666 14.1283 26.2033 6.66667 17 6.66667ZM17 36.6667C9.64831 36.6667 3.66665 30.685 3.66665 23.3333C3.66665 15.9817 9.64831 10 17 10C24.3516 10 30.3333 15.9817 30.3333 23.3333C30.3333 30.685 24.3516 36.6667 17 36.6667ZM13.6666 3.635V0H20.3333V3.635C17.9366 3.23 16.0133 3.23833 13.6666 3.635ZM28.965 7.345L31.31 5L33.6666 7.35667L31.465 9.55833C30.695 8.75167 29.8583 8.015 28.965 7.345ZM7.83331 23.3333C7.83331 23.7933 7.45998 24.1667 6.99998 24.1667C6.53998 24.1667 6.16665 23.7933 6.16665 23.3333C6.16665 22.8733 6.53998 22.5 6.99998 22.5C7.45998 22.5 7.83331 22.8733 7.83331 23.3333ZM27.8333 23.3333C27.8333 23.7933 27.46 24.1667 27 24.1667C26.54 24.1667 26.1666 23.7933 26.1666 23.3333C26.1666 22.8733 26.54 22.5 27 22.5C27.46 22.5 27.8333 22.8733 27.8333 23.3333ZM17.8333 33.3333C17.8333 33.7933 17.46 34.1667 17 34.1667C16.54 34.1667 16.1666 33.7933 16.1666 33.3333C16.1666 32.8733 16.54 32.5 17 32.5C17.46 32.5 17.8333 32.8733 17.8333 33.3333ZM11.1666 30C11.1666 30.46 10.7933 30.8333 10.3333 30.8333C9.87331 30.8333 9.49998 30.46 9.49998 30C9.49998 29.54 9.87331 29.1667 10.3333 29.1667C10.7933 29.1667 11.1666 29.54 11.1666 30ZM24.5 30C24.5 30.46 24.1266 30.8333 23.6666 30.8333C23.2066 30.8333 22.8333 30.46 22.8333 30C22.8333 29.54 23.2066 29.1667 23.6666 29.1667C24.1266 29.1667 24.5 29.54 24.5 30ZM11.1666 15C11.1666 15.46 10.7933 15.8333 10.3333 15.8333C9.87331 15.8333 9.49998 15.46 9.49998 15C9.49998 14.54 9.87331 14.1667 10.3333 14.1667C10.7933 14.1667 11.1666 14.54 11.1666 15ZM24.5 15C24.5 15.46 24.1266 15.8333 23.6666 15.8333C23.2066 15.8333 22.8333 15.46 22.8333 15C22.8333 14.54 23.2066 14.1667 23.6666 14.1667C24.1266 14.1667 24.5 14.54 24.5 15Z" fill="#4D13D1"/>
</svg>
